<?xml version="1.0" encoding="UTF-8" standalone="no"?>
<svg
   version="1.1"
   x="0px"
   y="0px"
   viewBox="0 0 512 512"
   enable-background="new 0 0 512 512"
   xml:space="preserve"
   id="svg3"
   sodipodi:docname="resize.svg"
   width="512"
   height="512"
   inkscape:version="1.3 (0e150ed6c4, 2023-07-21)"
   xmlns:inkscape="http://www.inkscape.org/namespaces/inkscape"
   xmlns:sodipodi="http://sodipodi.sourceforge.net/DTD/sodipodi-0.dtd"
   xmlns="http://www.w3.org/2000/svg"
   xmlns:svg="http://www.w3.org/2000/svg"><defs
     id="defs3" /><sodipodi:namedview
     id="namedview3"
     pagecolor="#ffffff"
     bordercolor="#000000"
     borderopacity="0.25"
     inkscape:showpageshadow="2"
     inkscape:pageopacity="0.0"
     inkscape:pagecheckerboard="0"
     inkscape:deskcolor="#d1d1d1"
     inkscape:zoom="1.471875"
     inkscape:cx="104.62845"
     inkscape:cy="324.75584"
     inkscape:window-width="1920"
     inkscape:window-height="1163"
     inkscape:window-x="0"
     inkscape:window-y="0"
     inkscape:window-maximized="1"
     inkscape:current-layer="svg3" /><path
     d="m 344.202,302.057 c -9.33,-14.664 -22.116,-26.738 -37.204,-35.188 V 100.471 C 306.998,72.35 284.12,49.473 256,49.473 c -28.12,0 -50.998,22.877 -50.998,50.998 v 166.398 c -15.088,8.449 -27.874,20.523 -37.204,35.188 -10.642,16.728 -16.267,36.092 -16.267,56.002 0,57.604 46.864,104.47 104.469,104.47 57.605,0 104.469,-46.865 104.469,-104.47 0,-19.911 -5.625,-39.276 -16.267,-56.002 z M 256,444.527 c -47.679,0 -86.469,-38.789 -86.469,-86.469 0,-33.25 18.56,-63.015 48.436,-77.675 l 5.035,-2.471 V 100.471 c 0,-18.195 14.803,-32.998 32.998,-32.998 18.195,0 32.998,14.803 32.998,32.998 v 177.443 l 5.035,2.471 c 29.876,14.66 48.436,44.424 48.436,77.674 0,47.679 -38.79,86.468 -86.469,86.468 z"
     id="path1"
     style="fill:#ffffff" /><path
     d="m 284.782,299.238 -16.784,-8.236 V 100.471 c 0,-6.616 -5.382,-11.998 -11.998,-11.998 -6.616,0 -11.998,5.382 -11.998,11.998 v 190.531 l -16.784,8.236 c -22.629,11.104 -36.687,33.643 -36.687,58.82 0,36.1 29.369,65.469 65.469,65.469 36.1,0 65.469,-29.369 65.469,-65.469 0,-25.177 -14.058,-47.716 -36.687,-58.82 z"
     id="path2"
     style="fill:#ffffff" /></svg>
