<?xml version="1.0" encoding="UTF-8" standalone="no"?>
<svg
   version="1.0"
   x="0px"
   y="0px"
   viewBox="0 0 100 100"
   enable-background="new 0 0 100 100"
   xml:space="preserve"
   id="svg2"
   sodipodi:docname="resize2.svg"
   width="25"
   height="25"
   inkscape:version="1.3 (0e150ed6c4, 2023-07-21)"
   xmlns:inkscape="http://www.inkscape.org/namespaces/inkscape"
   xmlns:sodipodi="http://sodipodi.sourceforge.net/DTD/sodipodi-0.dtd"
   xmlns="http://www.w3.org/2000/svg"
   xmlns:svg="http://www.w3.org/2000/svg"><defs
     id="defs2" /><sodipodi:namedview
     id="namedview2"
     pagecolor="#ffffff"
     bordercolor="#000000"
     borderopacity="0.25"
     inkscape:showpageshadow="2"
     inkscape:pageopacity="0.0"
     inkscape:pagecheckerboard="0"
     inkscape:deskcolor="#d1d1d1"
     inkscape:zoom="7.536"
     inkscape:cx="50.026539"
     inkscape:cy="30.652866"
     inkscape:window-width="1920"
     inkscape:window-height="1163"
     inkscape:window-x="0"
     inkscape:window-y="0"
     inkscape:window-maximized="1"
     inkscape:current-layer="svg2" /><path
     d="m 65.750214,18.835422 h -5.531182 v -3.6788 c 0,-5.3553773 -4.356579,-9.7113629 -9.711296,-9.7113629 -5.354717,0 -9.710636,4.3559852 -9.710636,9.7113629 v 47.441009 c -4.78727,3.163018 -7.953194,8.589943 -7.953194,14.7444 0,9.73964 7.924122,17.663826 17.66383,17.663826 9.739708,0 17.663826,-7.924186 17.663826,-17.663826 0,-6.154457 -3.165924,-11.580459 -7.95253,-14.7444 v -5.900894 h 9.480988 v -5.57822 h -9.480988 v -4.984741 h 5.353134 v -5.578553 h -5.353134 v -5.222122 h 9.480988 v -5.578287 h -9.480988 v -5.341106 h 5.531182 z m -3.402047,58.506611 c 0,6.539231 -5.301467,11.841027 -11.840431,11.841027 -6.539562,0 -11.841026,-5.301796 -11.841026,-11.841027 0,-2.518798 0.789364,-4.851814 2.13039,-6.771255 0.792275,-1.134834 1.778454,-2.123261 2.911037,-2.91877 0.88873,-0.625519 1.86652,-1.131065 2.911698,-1.493637 V 63.115067 60.114311 46.112499 h 7.775802 v 14.001812 3.000756 3.043304 c 1.045178,0.362572 2.022965,0.868118 2.911698,1.493637 1.13232,0.795509 2.118763,1.783936 2.911697,2.91877 1.340035,1.919441 2.129135,4.252457 2.129135,6.771255 z"
     id="path1" /><path
     style="fill:#ffffff;stroke-width:0.132696"
     d="M 11.263573,23.43676 C 10.075596,23.012236 9.2135564,22.213332 8.67735,21.039951 7.9419756,19.430731 8.306392,17.56242 9.6098968,16.258916 l 0.6077252,-0.607726 7.4e-4,-5.9346714 c 4.9e-4,-3.9317089 0.05036,-6.1138125 0.147756,-6.465457 0.333455,-1.203907 1.249708,-1.862374 2.45267,-1.7626151 1.29366,0.1072804 2.166953,1.1489551 2.17299,2.5919675 l 0.0029,0.6966561 h 0.663482 0.663482 V 5.440552 6.104034 H 15.65816 14.994678 v 0.7298301 0.7298302 h 1.194268 1.194267 V 8.160828 8.7579618 H 16.18896 14.994692 v 0.7298301 0.7298301 h 0.663482 0.663482 v 0.597134 0.597134 h -0.663482 -0.663482 v 0.72983 0.72983 h 1.194268 1.194267 v 0.597134 0.597133 H 16.18896 14.994692 v 0.800233 c 0,0.753409 0.0281,0.824901 0.480171,1.221828 1.411301,1.239139 1.856945,3.250198 1.106697,4.994196 -0.377903,0.878461 -1.596732,2.02778 -2.463682,2.323179 -0.74953,0.255391 -2.1835,0.27122 -2.854305,0.03151 z m 3.036831,-1.572059 c 1.040304,-0.688455 1.568225,-2.127939 1.22716,-3.346102 -0.187827,-0.670854 -0.899999,-1.574711 -1.475065,-1.872089 L 13.667728,16.447537 V 13.929713 11.41189 h -1.061571 -1.061571 v 2.587579 c 0,2.005635 -0.03796,2.58758 -0.168811,2.58758 -0.09285,0 -0.393145,0.184916 -0.667333,0.410925 -1.6521755,1.361863 -1.3638925,3.995106 0.551175,5.034557 0.747227,0.405575 2.304183,0.319643 3.040787,-0.16783 z"
     id="path2"
     transform="scale(4)" /></svg>
